<?xml version="1.0" encoding="UTF-8"?>
<svg xmlns="http://www.w3.org/2000/svg" viewBox="0 0 800 1100" width="800" height="1100">
  <defs>
    <style>
      .masthead { font-family: 'Courier New', monospace; font-size: 38px; font-weight: bold; letter-spacing: 4px; }
      .tagline { font-family: 'Courier New', monospace; font-size: 11px; text-transform: uppercase; letter-spacing: 3px; }
      .meta { font-family: 'Courier New', monospace; font-size: 10px; }
      .section-header { font-family: 'Courier New', monospace; font-size: 12px; font-weight: bold; text-transform: uppercase; letter-spacing: 2px; }
      .headline-small { font-family: 'Courier New', monospace; font-size: 12px; font-weight: bold; }
      .body-text { font-family: 'Courier New', monospace; font-size: 9px; }
      .placeholder { font-family: 'Courier New', monospace; font-size: 10px; fill: #8b0000; font-style: italic; }
      .label { font-family: 'Courier New', monospace; font-size: 8px; fill: #888; }
    </style>
  </defs>

  <!-- Background - aged manila folder -->
  <rect width="800" height="1100" fill="#f0e6d3"/>
  <!-- Coffee stain decoration -->
  <circle cx="720" cy="980" r="30" fill="#d4c4a8" opacity="0.4"/>
  <circle cx="725" cy="975" r="25" fill="#f0e6d3" opacity="0.8"/>

  <!-- Border - folder tabs style -->
  <rect x="15" y="15" width="770" height="1070" fill="none" stroke="#5c3d1e" stroke-width="2"/>
  <rect x="20" y="20" width="760" height="1060" fill="none" stroke="#5c3d1e" stroke-width="0.5"/>

  <!-- Masthead - dark brown -->
  <rect x="25" y="25" width="750" height="85" fill="#3d2b1f"/>
  <text x="400" y="58" text-anchor="middle" class="masthead" fill="#f0e6d3">[CASE FILE NAME]</text>
  <text x="400" y="78" text-anchor="middle" class="tagline" fill="#a08060">CLASSIFIED - [Team Name] Eyes Only</text>
  <text x="400" y="95" text-anchor="middle" font-family="monospace" font-size="9" fill="#a08060">UNAUTHORIZED ACCESS WILL RESULT IN MANDATORY CODE REVIEW</text>

  <!-- Meta line -->
  <rect x="25" y="110" width="750" height="20" fill="#e8dcc8"/>
  <text x="35" y="123" class="meta">Case No. [XXX] | Sprint [XX] | [Date]</text>
  <text x="765" y="123" text-anchor="end" class="meta">Filed by: [Team Name] | Status: [OPEN/CLOSED]</text>

  <!-- CLASSIFIED stamp -->
  <g transform="translate(710,40) rotate(-15)">
    <rect x="-35" y="-12" width="70" height="24" rx="2" fill="none" stroke="#8b0000" stroke-width="2"/>
    <text x="0" y="5" text-anchor="middle" fill="#8b0000" font-size="11" font-family="monospace" font-weight="bold">CLASSIFIED</text>
  </g>

  <!-- ==================== CASE SUMMARY ==================== -->
  <rect x="25" y="135" width="750" height="255" fill="#faf5ed" stroke="#5c3d1e" stroke-width="0.5"/>
  <text x="400" y="160" text-anchor="middle" class="section-header" fill="#3d2b1f">CASE SUMMARY</text>
  <line x1="300" y1="165" x2="500" y2="165" stroke="#8b0000" stroke-width="1"/>

  <rect x="40" y="175" width="720" height="45" fill="#fdf8f0" stroke="#c0a880" stroke-dasharray="4"/>
  <text x="400" y="202" text-anchor="middle" class="placeholder">[CASE HEADLINE - What's the main story of this sprint?]</text>

  <rect x="40" y="230" width="350" height="145" fill="#fdf8f0" stroke="#c0a880" stroke-dasharray="4"/>
  <text x="215" y="260" text-anchor="middle" class="placeholder">[Case briefing]</text>
  <text x="215" y="278" text-anchor="middle" class="placeholder">What happened? Who's involved?</text>
  <text x="215" y="296" text-anchor="middle" class="placeholder">What evidence do we have?</text>
  <text x="215" y="325" text-anchor="middle" class="label">~100-150 words</text>

  <!-- Evidence board area -->
  <rect x="410" y="230" width="350" height="145" fill="#fdf8f0" stroke="#c0a880" stroke-dasharray="4"/>
  <!-- Pin decorations -->
  <circle cx="430" cy="245" r="4" fill="#cc0000"/>
  <circle cx="740" cy="245" r="4" fill="#cc0000"/>
  <circle cx="430" cy="360" r="4" fill="#cc0000"/>
  <circle cx="740" cy="360" r="4" fill="#cc0000"/>
  <!-- String between pins -->
  <line x1="430" y1="245" x2="740" y2="360" stroke="#cc0000" stroke-width="0.5" opacity="0.4"/>
  <line x1="740" y1="245" x2="430" y2="360" stroke="#cc0000" stroke-width="0.5" opacity="0.4"/>
  <text x="585" y="305" text-anchor="middle" class="placeholder">[EVIDENCE BOARD]</text>
  <text x="585" y="320" text-anchor="middle" class="label">Connect the dots. Pin your evidence.</text>

  <!-- ==================== SECONDARY ==================== -->
  <line x1="25" y1="395" x2="775" y2="395" stroke="#5c3d1e" stroke-width="0.5"/>

  <!-- Witness Statements -->
  <rect x="25" y="400" width="245" height="200" fill="#faf5ed" stroke="#5c3d1e" stroke-width="0.5"/>
  <text x="147" y="420" text-anchor="middle" class="section-header" fill="#3d2b1f">WITNESS STATEMENT</text>
  <rect x="35" y="432" width="225" height="30" fill="#fdf8f0" stroke="#c0a880" stroke-dasharray="4"/>
  <text x="147" y="452" text-anchor="middle" class="placeholder">[Witness name &amp; role]</text>
  <rect x="35" y="470" width="225" height="120" fill="#fdf8f0" stroke="#c0a880" stroke-dasharray="4"/>
  <text x="147" y="510" text-anchor="middle" class="placeholder">[In their own words:]</text>
  <text x="147" y="530" text-anchor="middle" class="placeholder">"I was there when..."</text>
  <text x="147" y="555" text-anchor="middle" class="label">~75 words</text>

  <!-- Forensic Analysis -->
  <rect x="277" y="400" width="245" height="200" fill="#faf5ed" stroke="#5c3d1e" stroke-width="0.5"/>
  <text x="400" y="420" text-anchor="middle" class="section-header" fill="#3d2b1f">FORENSIC ANALYSIS</text>
  <rect x="287" y="432" width="225" height="30" fill="#fdf8f0" stroke="#c0a880" stroke-dasharray="4"/>
  <text x="400" y="452" text-anchor="middle" class="placeholder">[Analysis title]</text>
  <rect x="287" y="470" width="225" height="120" fill="#fdf8f0" stroke="#c0a880" stroke-dasharray="4"/>
  <text x="400" y="510" text-anchor="middle" class="placeholder">[Technical deep-dive]</text>
  <text x="400" y="530" text-anchor="middle" class="placeholder">[What does the data say?]</text>
  <text x="400" y="555" text-anchor="middle" class="label">~75 words</text>

  <!-- Suspect Profile -->
  <rect x="529" y="400" width="246" height="200" fill="#faf5ed" stroke="#5c3d1e" stroke-width="0.5"/>
  <text x="652" y="420" text-anchor="middle" class="section-header" fill="#8b0000">SUSPECT PROFILE</text>
  <text x="652" y="433" text-anchor="middle" class="label">(Root Cause Analysis)</text>
  <rect x="539" y="445" width="80" height="80" fill="#fdf8f0" stroke="#c0a880" stroke-dasharray="4"/>
  <text x="579" y="488" text-anchor="middle" class="placeholder">[Mugshot]</text>
  <rect x="625" y="445" width="140" height="80" fill="#fdf8f0" stroke="#c0a880" stroke-dasharray="4"/>
  <text x="695" y="475" text-anchor="middle" class="placeholder">[Name: ________]</text>
  <text x="695" y="490" text-anchor="middle" class="placeholder">[Motive: ______]</text>
  <text x="695" y="505" text-anchor="middle" class="placeholder">[Method: ______]</text>
  <rect x="539" y="535" width="226" height="55" fill="#fdf8f0" stroke="#c0a880" stroke-dasharray="4"/>
  <text x="652" y="565" text-anchor="middle" class="placeholder">[What/who caused this?]</text>

  <!-- ==================== SMALL SECTIONS ==================== -->
  <line x1="25" y1="605" x2="775" y2="605" stroke="#5c3d1e" stroke-width="0.5"/>

  <!-- Cold Cases -->
  <rect x="25" y="610" width="185" height="150" fill="#faf5ed" stroke="#5c3d1e" stroke-width="0.5"/>
  <text x="117" y="628" text-anchor="middle" class="section-header" fill="#3d2b1f">COLD CASES</text>
  <text x="117" y="641" text-anchor="middle" class="label">(Unresolved from past)</text>
  <rect x="35" y="650" width="165" height="100" fill="#fdf8f0" stroke="#c0a880" stroke-dasharray="4"/>
  <text x="117" y="695" text-anchor="middle" class="placeholder">[Still open...]</text>
  <text x="117" y="715" text-anchor="middle" class="label">~40 words</text>

  <!-- Commendations (Kudos) -->
  <rect x="217" y="610" width="185" height="150" fill="#faf5ed" stroke="#5c3d1e" stroke-width="0.5"/>
  <text x="310" y="628" text-anchor="middle" class="section-header" fill="#3d2b1f">COMMENDATIONS</text>
  <text x="310" y="641" text-anchor="middle" class="label">(Officer of the Sprint)</text>
  <rect x="227" y="650" width="165" height="100" fill="#e8f5e9" stroke="#c0a880" stroke-dasharray="4"/>
  <text x="310" y="695" text-anchor="middle" class="placeholder">[Who gets the badge?]</text>

  <!-- Precinct Morale (Mood) -->
  <rect x="409" y="610" width="185" height="150" fill="#faf5ed" stroke="#5c3d1e" stroke-width="0.5"/>
  <text x="502" y="628" text-anchor="middle" class="section-header" fill="#3d2b1f">PRECINCT MORALE</text>
  <rect x="419" y="645" width="165" height="105" fill="#fdf8f0" stroke="#c0a880" stroke-dasharray="4"/>
  <text x="502" y="690" text-anchor="middle" class="placeholder">[High alert? Calm?]</text>
  <text x="502" y="710" text-anchor="middle" class="placeholder">[Battle-weary? Sharp?]</text>

  <!-- Active Investigations -->
  <rect x="601" y="610" width="174" height="150" fill="#faf5ed" stroke="#5c3d1e" stroke-width="0.5"/>
  <text x="688" y="628" text-anchor="middle" class="section-header" fill="#3d2b1f">ACTIVE CASES</text>
  <rect x="611" y="645" width="154" height="105" fill="#fdf8f0" stroke="#c0a880" stroke-dasharray="4"/>
  <text x="688" y="695" text-anchor="middle" class="placeholder">[Next sprint cases]</text>
  <text x="688" y="715" text-anchor="middle" class="label">~40 words</text>

  <!-- ==================== BOTTOM ==================== -->
  <line x1="25" y1="765" x2="775" y2="765" stroke="#5c3d1e" stroke-width="0.5"/>

  <!-- Most Wanted -->
  <rect x="25" y="770" width="370" height="160" fill="#faf5ed" stroke="#5c3d1e" stroke-width="0.5"/>
  <text x="210" y="790" text-anchor="middle" class="section-header" fill="#8b0000">MOST WANTED</text>
  <text x="210" y="803" text-anchor="middle" class="label">(Top Priorities / Help Needed)</text>
  <rect x="35" y="810" width="170" height="55" fill="#fdf8f0" stroke="#8b0000" stroke-dasharray="4"/>
  <text x="120" y="830" text-anchor="middle" class="placeholder">[WANTED: ________]</text>
  <text x="120" y="845" text-anchor="middle" class="label">Reward: [___]</text>
  <rect x="215" y="810" width="170" height="55" fill="#fdf8f0" stroke="#8b0000" stroke-dasharray="4"/>
  <text x="300" y="830" text-anchor="middle" class="placeholder">[WANTED: ________]</text>
  <text x="300" y="845" text-anchor="middle" class="label">Reward: [___]</text>
  <rect x="35" y="870" width="345" height="50" fill="#fdf8f0" stroke="#c0a880" stroke-dasharray="4"/>
  <text x="210" y="898" text-anchor="middle" class="placeholder">[INFORMANT TIP LINE: What intel do you need?]</text>

  <!-- Case Statistics -->
  <rect x="402" y="770" width="373" height="160" fill="#faf5ed" stroke="#5c3d1e" stroke-width="0.5"/>
  <text x="588" y="790" text-anchor="middle" class="section-header" fill="#3d2b1f">CASE STATISTICS</text>
  <text x="588" y="803" text-anchor="middle" class="label">(Precinct Numbers)</text>
  <rect x="412" y="815" width="353" height="105" fill="#fdf8f0" stroke="#c0a880" stroke-dasharray="4"/>
  <text x="588" y="845" text-anchor="middle" class="placeholder">[Sprint Stats]</text>
  <text x="588" y="865" text-anchor="middle" class="placeholder">Cases closed: ___  Cases opened: ___</text>
  <text x="588" y="885" text-anchor="middle" class="placeholder">Evidence collected: ___  Suspects cleared: ___</text>
  <text x="588" y="905" text-anchor="middle" class="placeholder">Donuts consumed: ___</text>

  <!-- ==================== FOOTER ==================== -->
  <line x1="25" y1="935" x2="775" y2="935" stroke="#5c3d1e" stroke-width="0.5"/>

  <rect x="25" y="940" width="500" height="55" fill="#faf5ed" stroke="#5c3d1e" stroke-width="0.5"/>
  <text x="275" y="960" text-anchor="middle" class="section-header" fill="#3d2b1f">OVERHEARD IN THE PRECINCT</text>
  <rect x="35" y="970" width="480" height="20" fill="#fdf8f0" stroke="#c0a880" stroke-dasharray="4"/>
  <text x="275" y="985" text-anchor="middle" class="placeholder">"[Most incriminating quote]" - Detective</text>

  <rect x="532" y="940" width="243" height="55" fill="#faf5ed" stroke="#5c3d1e" stroke-width="0.5"/>
  <text x="653" y="960" text-anchor="middle" class="section-header" fill="#3d2b1f">SKETCH ARTIST</text>
  <rect x="542" y="970" width="223" height="20" fill="#fdf8f0" stroke="#c0a880" stroke-dasharray="4"/>
  <text x="653" y="985" text-anchor="middle" class="placeholder">[Draw the suspect!]</text>

  <text x="400" y="1015" text-anchor="middle" class="meta">Filed at [Company] Precinct HQ | All suspects innocent until proven guilty | No donuts were harmed</text>
  <text x="765" y="1070" text-anchor="end" class="meta">Case [XXX] | Status: FILED</text>

  <!-- Folder tab decoration -->
  <rect x="300" y="15" width="200" height="12" rx="2" fill="#5c3d1e"/>
  <text x="400" y="24" text-anchor="middle" fill="#f0e6d3" font-size="8" font-family="monospace">SPRINT [XX] CASE FILES</text>

  <text x="35" y="1035" class="label">Detectives: _________________ | Chief Inspector: _________________ | Case Status: _________________</text>
</svg>
