<?xml version="1.0" encoding="UTF-8"?>
<svg xmlns="http://www.w3.org/2000/svg" viewBox="0 0 1400 580" width="1400" height="580">
  <defs>
    <style>
      .title { font-family: 'Helvetica Neue', Arial, sans-serif; font-size: 18px; font-weight: bold; fill: #1a1a1a; }
      .subtitle { font-family: 'Helvetica Neue', Arial, sans-serif; font-size: 10px; fill: #777; }
      .lane-label { font-family: 'Helvetica Neue', Arial, sans-serif; font-size: 11px; font-weight: bold; fill: #444; }
      .phase-name { font-family: 'Helvetica Neue', Arial, sans-serif; font-size: 11px; font-weight: bold; fill: #fff; }
      .phase-time { font-family: 'Helvetica Neue', Arial, sans-serif; font-size: 8.5px; fill: rgba(255,255,255,0.85); }
      .phase-dur { font-family: 'Helvetica Neue', Arial, sans-serif; font-size: 8px; fill: rgba(255,255,255,0.7); }
      .cd-label { font-family: 'Helvetica Neue', Arial, sans-serif; font-size: 8px; font-weight: bold; letter-spacing: 1.5px; }
      .act-header { font-family: 'Helvetica Neue', Arial, sans-serif; font-size: 9px; font-weight: bold; fill: #333; }
      .act-text { font-family: 'Helvetica Neue', Arial, sans-serif; font-size: 8.5px; fill: #444; }
      .act-note { font-family: 'Helvetica Neue', Arial, sans-serif; font-size: 8px; fill: #888; font-style: italic; }
      .art-text { font-family: 'Helvetica Neue', Arial, sans-serif; font-size: 8.5px; fill: #444; }
      .art-bold { font-family: 'Helvetica Neue', Arial, sans-serif; font-size: 8.5px; fill: #333; font-weight: bold; }
      .time-mark { font-family: 'Courier New', monospace; font-size: 8px; fill: #999; }
      .legend-text { font-family: 'Helvetica Neue', Arial, sans-serif; font-size: 9px; fill: #555; }
      .note { font-family: 'Helvetica Neue', Arial, sans-serif; font-size: 8px; fill: #999; font-style: italic; }
    </style>
  </defs>

  <!-- Background -->
  <rect width="1400" height="580" fill="#fafafa"/>

  <!-- Title -->
  <text x="700" y="22" text-anchor="middle" class="title">Themed Retrospective: Facilitation Flow</text>
  <text x="700" y="36" text-anchor="middle" class="subtitle">55 minutes  |  Opening - Diverge - Converge - Closing  |  Three data sources, one template</text>

  <!-- ==================== GRID STRUCTURE ==================== -->
  <!-- Top border -->
  <line x1="0" y1="50" x2="1400" y2="50" stroke="#ddd" stroke-width="0.5"/>
  <!-- Phase / Flow boundary -->
  <line x1="100" y1="130" x2="1370" y2="130" stroke="#ccc" stroke-width="0.5"/>
  <!-- Flow / Activities boundary -->
  <line x1="100" y1="152" x2="1370" y2="152" stroke="#ccc" stroke-width="0.5"/>
  <!-- Activities / Artifacts boundary -->
  <line x1="100" y1="370" x2="1370" y2="370" stroke="#ccc" stroke-width="0.5"/>
  <!-- Bottom border -->
  <line x1="100" y1="468" x2="1370" y2="468" stroke="#ccc" stroke-width="0.5"/>

  <!-- Left border -->
  <line x1="100" y1="50" x2="100" y2="468" stroke="#ccc" stroke-width="0.5"/>
  <!-- Right border -->
  <line x1="1370" y1="50" x2="1370" y2="468" stroke="#ccc" stroke-width="0.5"/>

  <!-- Column separators -->
  <line x1="258" y1="50" x2="258" y2="468" stroke="#ddd" stroke-width="0.5" stroke-dasharray="3"/>
  <line x1="381" y1="50" x2="381" y2="468" stroke="#ddd" stroke-width="0.5" stroke-dasharray="3"/>
  <line x1="529" y1="50" x2="529" y2="468" stroke="#ddd" stroke-width="0.5" stroke-dasharray="3"/>
  <line x1="742" y1="50" x2="742" y2="468" stroke="#ddd" stroke-width="0.5" stroke-dasharray="3"/>
  <line x1="855" y1="50" x2="855" y2="468" stroke="#ddd" stroke-width="0.5" stroke-dasharray="3"/>
  <line x1="1043" y1="50" x2="1043" y2="468" stroke="#ddd" stroke-width="0.5" stroke-dasharray="3"/>
  <line x1="1221" y1="50" x2="1221" y2="468" stroke="#ddd" stroke-width="0.5" stroke-dasharray="3"/>

  <!-- ==================== SWIMLANE LABELS ==================== -->
  <rect x="0" y="50" width="98" height="80" fill="#f0f0f0"/>
  <text x="50" y="85" text-anchor="middle" class="lane-label">PHASE</text>
  <text x="50" y="98" text-anchor="middle" class="note">(timeline)</text>

  <rect x="0" y="130" width="98" height="22" fill="#f5f5f5"/>
  <text x="50" y="145" text-anchor="middle" class="cd-label" fill="#777">FLOW</text>

  <rect x="0" y="152" width="98" height="218" fill="#f0f0f0"/>
  <text x="50" y="253" text-anchor="middle" class="lane-label">ACTIVITIES</text>
  <text x="50" y="267" text-anchor="middle" class="note">(who does what)</text>

  <rect x="0" y="370" width="98" height="98" fill="#f0f0f0"/>
  <text x="50" y="415" text-anchor="middle" class="lane-label">ARTIFACTS</text>
  <text x="50" y="428" text-anchor="middle" class="note">(what's created)</text>

  <!-- ==================== TIME AXIS ==================== -->
  <text x="179" y="62" text-anchor="middle" class="time-mark">-10 min</text>
  <text x="320" y="62" text-anchor="middle" class="time-mark">0:00</text>
  <text x="455" y="62" text-anchor="middle" class="time-mark">0:05</text>
  <text x="636" y="62" text-anchor="middle" class="time-mark">0:12</text>
  <text x="799" y="62" text-anchor="middle" class="time-mark">0:24</text>
  <text x="949" y="62" text-anchor="middle" class="time-mark">0:29</text>
  <text x="1132" y="62" text-anchor="middle" class="time-mark">0:40</text>
  <text x="1296" y="62" text-anchor="middle" class="time-mark">0:50</text>
  <text x="1380" y="62" text-anchor="end" class="time-mark">0:55</text>

  <!-- ==================== PHASE LANE ==================== -->
  <!-- Preparation -->
  <rect x="102" y="68" width="154" height="60" rx="4" fill="#78909c"/>
  <text x="179" y="92" text-anchor="middle" class="phase-name">PREPARATION</text>
  <text x="179" y="105" text-anchor="middle" class="phase-time">~10 min | Before retro</text>
  <text x="179" y="118" text-anchor="middle" class="phase-dur">Facilitator only</text>

  <!-- Set the Stage -->
  <rect x="260" y="68" width="119" height="60" rx="4" fill="#5c6bc0"/>
  <text x="320" y="86" text-anchor="middle" class="phase-name">OPENING:</text>
  <text x="320" y="99" text-anchor="middle" class="phase-name">SET THE STAGE</text>
  <text x="320" y="118" text-anchor="middle" class="phase-time">5 min</text>

  <!-- Ice Breakers -->
  <rect x="383" y="68" width="144" height="60" rx="4" fill="#26a69a"/>
  <text x="455" y="92" text-anchor="middle" class="phase-name">ICE BREAKERS</text>
  <text x="455" y="105" text-anchor="middle" class="phase-time">7 min | Together</text>
  <text x="455" y="118" text-anchor="middle" class="phase-dur">Collect data</text>

  <!-- Individual Writing -->
  <rect x="531" y="68" width="209" height="60" rx="4" fill="#ff8a65"/>
  <text x="636" y="86" text-anchor="middle" class="phase-name">INDIVIDUAL</text>
  <text x="636" y="99" text-anchor="middle" class="phase-name">WRITING</text>
  <text x="636" y="118" text-anchor="middle" class="phase-time">12 min | Solo / Pairs</text>

  <!-- Gallery Walk -->
  <rect x="744" y="68" width="109" height="60" rx="4" fill="#7e57c2"/>
  <text x="799" y="86" text-anchor="middle" class="phase-name">GALLERY</text>
  <text x="799" y="99" text-anchor="middle" class="phase-name">WALK</text>
  <text x="799" y="118" text-anchor="middle" class="phase-time">5 min | Silent</text>

  <!-- Sharing -->
  <rect x="857" y="68" width="184" height="60" rx="4" fill="#42a5f5"/>
  <text x="949" y="86" text-anchor="middle" class="phase-name">HEADLINE</text>
  <text x="949" y="99" text-anchor="middle" class="phase-name">SHARING</text>
  <text x="949" y="118" text-anchor="middle" class="phase-time">11 min | Round-robin</text>

  <!-- Discussion -->
  <rect x="1045" y="68" width="174" height="60" rx="4" fill="#ef5350"/>
  <text x="1132" y="92" text-anchor="middle" class="phase-name">DISCUSSION</text>
  <text x="1132" y="105" text-anchor="middle" class="phase-time">10 min | Open</text>
  <text x="1132" y="118" text-anchor="middle" class="phase-dur">Action items</text>

  <!-- Closing -->
  <rect x="1223" y="68" width="145" height="60" rx="4" fill="#5c6bc0"/>
  <text x="1296" y="92" text-anchor="middle" class="phase-name">CLOSING</text>
  <text x="1296" y="105" text-anchor="middle" class="phase-time">5 min</text>
  <text x="1296" y="118" text-anchor="middle" class="phase-dur">Wrap up</text>

  <!-- ==================== FLOW ROW ==================== -->
  <!-- Opening bookend -->
  <rect x="260" y="132" width="119" height="18" rx="2" fill="#e8eaf6"/>
  <text x="320" y="144" text-anchor="middle" class="cd-label" fill="#5c6bc0">OPENING</text>

  <!-- Diverge: ice breakers + writing + gallery -->
  <rect x="383" y="132" width="470" height="18" rx="2" fill="#fff3e0"/>
  <text x="618" y="144" text-anchor="middle" class="cd-label" fill="#e65100">DIVERGE</text>
  <!-- Diverge arrows pointing outward -->
  <polygon points="383,141 389,136 389,146" fill="#e65100" opacity="0.6"/>
  <polygon points="853,141 847,136 847,146" fill="#e65100" opacity="0.6"/>

  <!-- Converge: sharing + discussion -->
  <rect x="857" y="132" width="362" height="18" rx="2" fill="#e3f2fd"/>
  <text x="1038" y="144" text-anchor="middle" class="cd-label" fill="#1565c0">CONVERGE</text>
  <!-- Converge arrows pointing inward -->
  <polygon points="857,141 863,136 863,146" fill="#1565c0" opacity="0.5"/>
  <polygon points="1219,141 1213,136 1213,146" fill="#1565c0" opacity="0.5"/>

  <!-- Closing bookend -->
  <rect x="1223" y="132" width="145" height="18" rx="2" fill="#e8eaf6"/>
  <text x="1296" y="144" text-anchor="middle" class="cd-label" fill="#5c6bc0">CLOSING</text>

  <!-- ==================== ACTIVITIES LANE ==================== -->

  <!-- Preparation activities -->
  <rect x="108" y="160" width="142" height="200" rx="3" fill="#eceff1" stroke="#cfd8dc"/>
  <text x="179" y="178" text-anchor="middle" class="act-header">Facilitator:</text>
  <text x="115" y="196" class="act-text">1. Pick the theme</text>
  <text x="115" y="212" class="act-text">2. Import SVG into</text>
  <text x="120" y="226" class="act-text">Miro/Mural, lock it</text>
  <text x="115" y="244" class="act-text">3. Pre-fill sprint</text>
  <text x="120" y="258" class="act-text">metrics from</text>
  <text x="120" y="272" class="act-text">Sprint Review</text>
  <text x="115" y="292" class="act-text">4. Review section</text>
  <text x="120" y="306" class="act-text">ownership map</text>
  <rect x="115" y="316" width="128" height="36" rx="2" fill="#78909c" opacity="0.15" stroke="#78909c" stroke-width="0.5"/>
  <text x="179" y="332" text-anchor="middle" class="act-note">Stats, dates, sprint</text>
  <text x="179" y="344" text-anchor="middle" class="act-note">goals on template</text>

  <!-- Set the Stage activities -->
  <rect x="266" y="160" width="107" height="200" rx="3" fill="#e8eaf6" stroke="#c5cae9"/>
  <text x="320" y="178" text-anchor="middle" class="act-header">Everyone:</text>
  <text x="272" y="198" class="act-text">Facilitator opens</text>
  <text x="272" y="212" class="act-text">in character</text>
  <text x="272" y="234" class="act-text">Team names the</text>
  <text x="272" y="248" class="act-text">publication</text>
  <text x="272" y="270" class="act-text">Explain sections:</text>
  <text x="272" y="286" class="act-note">"These are mine,</text>
  <text x="272" y="300" class="act-note">these are yours"</text>
  <text x="272" y="322" class="act-text">Participants pick</text>
  <text x="272" y="336" class="act-text">their section</text>

  <!-- Ice Breakers activities -->
  <rect x="389" y="160" width="132" height="200" rx="3" fill="#e0f2f1" stroke="#b2dfdb"/>
  <text x="455" y="178" text-anchor="middle" class="act-header">Everyone:</text>
  <text x="395" y="198" class="act-text">Go around the room</text>
  <text x="395" y="212" class="act-text">and collect:</text>
  <rect x="395" y="222" width="120" height="52" rx="2" fill="#26a69a" opacity="0.1" stroke="#26a69a" stroke-width="0.5"/>
  <text x="401" y="238" class="act-text">1. Mood weather</text>
  <text x="401" y="254" class="act-text">2. Kudos/Shoutouts</text>
  <text x="401" y="268" class="act-text">3. Quote of Sprint</text>
  <text x="395" y="294" class="act-header">Facilitator:</text>
  <text x="395" y="310" class="act-text">Notes everything</text>
  <text x="395" y="324" class="act-text">down (does NOT</text>
  <text x="395" y="338" class="act-text">fill template yet)</text>

  <!-- Individual Writing activities - TWO PARALLEL TRACKS -->
  <rect x="537" y="160" width="197" height="92" rx="3" fill="#fff3e0" stroke="#ffcc80"/>
  <text x="636" y="178" text-anchor="middle" class="act-header" fill="#e65100">Participants (solo):</text>
  <text x="543" y="196" class="act-text">Each writes their</text>
  <text x="543" y="210" class="act-text">article section(s)</text>
  <text x="543" y="228" class="act-note">Prompts on screen:</text>
  <text x="543" y="242" class="act-note">"What happened that</text>

  <!-- Parallel separator line -->
  <text x="636" y="262" text-anchor="middle" font-family="'Helvetica Neue', Arial, sans-serif" font-size="7" fill="#e65100" font-weight="bold">PARALLEL TRACKS</text>
  <line x1="540" y1="266" x2="731" y2="266" stroke="#e65100" stroke-width="1" stroke-dasharray="3"/>

  <rect x="537" y="272" width="197" height="88" rx="3" fill="#fbe9e7" stroke="#ffab91"/>
  <text x="636" y="290" text-anchor="middle" class="act-header" fill="#bf360c">Facilitator (parallel):</text>
  <text x="543" y="308" class="act-text">Fills ice breaker</text>
  <text x="543" y="322" class="act-text">sections from notes:</text>
  <text x="543" y="338" class="act-note">Weather, Kudos, Quote</text>
  <text x="543" y="352" class="act-note">5-min + 2-min warnings</text>

  <!-- Gallery Walk activities -->
  <rect x="750" y="160" width="97" height="200" rx="3" fill="#ede7f6" stroke="#d1c4e9"/>
  <text x="799" y="178" text-anchor="middle" class="act-header">Everyone silent:</text>
  <text x="756" y="198" class="act-text">Walk around,</text>
  <text x="756" y="212" class="act-text">read all articles</text>
  <text x="756" y="232" class="act-text">No talking</text>
  <text x="756" y="260" class="act-header">Facilitator:</text>
  <text x="756" y="278" class="act-text">Note patterns</text>
  <text x="756" y="296" class="act-text">Track what</text>
  <text x="756" y="310" class="act-text">repeats, what's</text>
  <text x="756" y="324" class="act-text">absent</text>
  <text x="756" y="346" class="act-note">Prepare questions</text>

  <!-- Sharing activities -->
  <rect x="863" y="160" width="172" height="200" rx="3" fill="#e3f2fd" stroke="#bbdefb"/>
  <text x="949" y="178" text-anchor="middle" class="act-header">Round-robin:</text>
  <text x="869" y="198" class="act-text">Each person ~1-1.5 min:</text>
  <rect x="869" y="208" width="160" height="52" rx="2" fill="#42a5f5" opacity="0.1" stroke="#42a5f5" stroke-width="0.5"/>
  <text x="875" y="224" class="act-text">Read headline</text>
  <text x="875" y="240" class="act-text">30-sec summary</text>
  <text x="875" y="254" class="act-text">One key takeaway</text>
  <text x="949" y="282" text-anchor="middle" class="act-header">Facilitator:</text>
  <text x="869" y="300" class="act-text">Listen, take notes,</text>
  <text x="869" y="316" class="act-text">track repeated</text>
  <text x="869" y="330" class="act-text">themes and gaps</text>

  <!-- Discussion activities -->
  <rect x="1051" y="160" width="162" height="200" rx="3" fill="#ffebee" stroke="#ef9a9a"/>
  <text x="1132" y="178" text-anchor="middle" class="act-header" fill="#c62828">Connect the dots:</text>
  <text x="1057" y="198" class="act-text">Facilitator asks</text>
  <text x="1057" y="212" class="act-text">about patterns:</text>
  <rect x="1057" y="222" width="150" height="52" rx="2" fill="#ef5350" opacity="0.08" stroke="#ef5350" stroke-width="0.5"/>
  <text x="1063" y="238" class="act-note">"3 of you wrote about</text>
  <text x="1063" y="252" class="act-note">the same blocker..."</text>
  <text x="1063" y="266" class="act-note">"Nobody mentioned X."</text>
  <text x="1057" y="292" class="act-text">Real conversation</text>
  <text x="1057" y="306" class="act-text">about patterns</text>
  <text x="1057" y="328" class="act-header">Decide on action</text>
  <text x="1057" y="342" class="act-header">items (specific,</text>
  <text x="1057" y="356" class="act-header">ownable)</text>

  <!-- Closing activities -->
  <rect x="1229" y="160" width="133" height="200" rx="3" fill="#e8eaf6" stroke="#c5cae9"/>
  <text x="1296" y="178" text-anchor="middle" class="act-header">Wrap up:</text>
  <text x="1235" y="198" class="act-text">Capture 1-3 action</text>
  <text x="1235" y="212" class="act-text">items visibly</text>
  <text x="1235" y="236" class="act-text">Optional closers:</text>
  <text x="1235" y="254" class="act-note">Exit mood check</text>
  <text x="1235" y="268" class="act-note">One-word takeaway</text>
  <text x="1235" y="282" class="act-note">Best Headline vote</text>
  <text x="1235" y="308" class="act-text">Facilitator closes:</text>
  <text x="1235" y="324" class="act-note">"That's a wrap on</text>
  <text x="1235" y="338" class="act-note">this edition!"</text>

  <!-- ==================== ARTIFACTS LANE ==================== -->

  <!-- Preparation artifacts -->
  <rect x="108" y="378" width="142" height="82" rx="3" fill="#f5f5f5" stroke="#e0e0e0"/>
  <text x="179" y="398" text-anchor="middle" class="art-bold">Template ready:</text>
  <text x="115" y="416" class="art-text">SVG on whiteboard</text>
  <text x="115" y="432" class="art-text">(locked)</text>
  <text x="115" y="450" class="art-text">Stats section filled</text>

  <!-- Stage artifacts -->
  <rect x="266" y="378" width="107" height="82" rx="3" fill="#f5f5f5" stroke="#e0e0e0"/>
  <text x="320" y="398" text-anchor="middle" class="art-bold">Named:</text>
  <text x="272" y="416" class="art-text">Masthead filled</text>
  <text x="272" y="432" class="art-text">Sections claimed</text>

  <!-- Ice Breaker artifacts -->
  <rect x="389" y="378" width="132" height="82" rx="3" fill="#f5f5f5" stroke="#e0e0e0"/>
  <text x="455" y="398" text-anchor="middle" class="art-bold">Data collected:</text>
  <text x="395" y="416" class="art-text">Mood responses</text>
  <text x="395" y="432" class="art-text">Kudos noted</text>
  <text x="395" y="448" class="art-text">Quote captured</text>

  <!-- Writing artifacts -->
  <rect x="537" y="378" width="197" height="82" rx="3" fill="#f5f5f5" stroke="#e0e0e0"/>
  <text x="636" y="398" text-anchor="middle" class="art-bold">Content created:</text>
  <text x="543" y="416" class="art-text">Individual articles written</text>
  <text x="543" y="432" class="art-text">Ice breaker sections filled</text>
  <text x="543" y="448" class="art-note">Template ~80% complete</text>

  <!-- Gallery artifacts -->
  <rect x="750" y="378" width="97" height="82" rx="3" fill="#f5f5f5" stroke="#e0e0e0"/>
  <text x="799" y="398" text-anchor="middle" class="art-bold">Awareness:</text>
  <text x="756" y="416" class="art-text">Everyone has</text>
  <text x="756" y="432" class="art-text">read all articles</text>
  <text x="756" y="448" class="art-text">Patterns noted</text>

  <!-- Sharing artifacts -->
  <rect x="863" y="378" width="172" height="82" rx="3" fill="#f5f5f5" stroke="#e0e0e0"/>
  <text x="949" y="398" text-anchor="middle" class="art-bold">Shared understanding:</text>
  <text x="869" y="416" class="art-text">Themes surfaced</text>
  <text x="869" y="432" class="art-text">Repeated topics visible</text>
  <text x="869" y="448" class="art-text">Gaps identified</text>

  <!-- Discussion artifacts -->
  <rect x="1051" y="378" width="162" height="82" rx="3" fill="#f5f5f5" stroke="#e0e0e0"/>
  <text x="1132" y="398" text-anchor="middle" class="art-bold">Decisions:</text>
  <text x="1057" y="416" class="art-text">1-3 action items</text>
  <text x="1057" y="432" class="art-text">(specific + ownable)</text>
  <text x="1057" y="448" class="art-text">Root causes named</text>

  <!-- Closing artifacts -->
  <rect x="1229" y="378" width="133" height="82" rx="3" fill="#f5f5f5" stroke="#e0e0e0"/>
  <text x="1296" y="398" text-anchor="middle" class="art-bold">Final artifact:</text>
  <text x="1235" y="416" class="art-text">Completed template</text>
  <text x="1235" y="432" class="art-text">Shareable in Slack</text>
  <text x="1235" y="448" class="art-text">Action items logged</text>

  <!-- ==================== LEGEND ==================== -->
  <rect x="102" y="480" width="1268" height="90" rx="4" fill="#f5f5f5" stroke="#e0e0e0"/>

  <text x="120" y="500" class="lane-label">Data sources:</text>

  <rect x="120" y="508" width="14" height="14" rx="2" fill="#78909c"/>
  <text x="140" y="520" class="legend-text">Sprint Review data (facilitator prepares before retro: metrics, stats, dates)</text>

  <rect x="120" y="528" width="14" height="14" rx="2" fill="#26a69a"/>
  <text x="140" y="540" class="legend-text">Ice breaker data (collected together, facilitator fills on template during writing phase)</text>

  <rect x="120" y="548" width="14" height="14" rx="2" fill="#ff8a65"/>
  <text x="140" y="560" class="legend-text">Individual reflections (participants write during solo phase: articles, stories, opinions)</text>

  <!-- Character note -->
  <rect x="760" y="506" width="590" height="50" rx="3" fill="#fff" stroke="#ccc" stroke-dasharray="3"/>
  <text x="770" y="524" class="act-header" fill="#5c6bc0">Character level is facilitator's choice:</text>
  <text x="770" y="540" class="legend-text">Full theatrical to light accent — dial up or down based on your read of the room.</text>
  <text x="770" y="552" class="legend-text">The theme is a lens, not a performance obligation.</text>

</svg>
